<svg width="900" height="640" viewBox="0 0 900 640" fill="none" xmlns="http://www.w3.org/2000/svg">
  <defs>
    <linearGradient id="bg" x1="76" y1="46" x2="800" y2="590" gradientUnits="userSpaceOnUse">
      <stop stop-color="#081119"/>
      <stop offset="1" stop-color="#162737"/>
    </linearGradient>
    <radialGradient id="glowA" cx="0" cy="0" r="1" gradientUnits="userSpaceOnUse" gradientTransform="translate(646 130) rotate(123.174) scale(298.141 312.654)">
      <stop stop-color="#6DE3FF" stop-opacity=".34"/>
      <stop offset="1" stop-color="#6DE3FF" stop-opacity="0"/>
    </radialGradient>
    <radialGradient id="glowB" cx="0" cy="0" r="1" gradientUnits="userSpaceOnUse" gradientTransform="translate(286 146) rotate(105.925) scale(242.348 295.592)">
      <stop stop-color="#FFB12A" stop-opacity=".24"/>
      <stop offset="1" stop-color="#FFB12A" stop-opacity="0"/>
    </radialGradient>
  </defs>
  <rect width="900" height="640" rx="36" fill="url(#bg)"/>
  <rect x="34" y="34" width="832" height="572" rx="28" stroke="white" stroke-opacity=".08"/>
  <circle cx="668" cy="122" r="168" fill="url(#glowA)"/>
  <circle cx="272" cy="126" r="152" fill="url(#glowB)"/>
  <path d="M74 188H826" stroke="white" stroke-opacity=".08"/>
  <path d="M74 508H826" stroke="white" stroke-opacity=".08"/>
  <rect x="118" y="126" width="286" height="170" rx="24" fill="#102030" stroke="#6DE3FF" stroke-opacity=".18"/>
  <rect x="436" y="102" width="334" height="206" rx="28" fill="#0E1C29" stroke="#6DE3FF" stroke-opacity=".18"/>
  <path d="M470 250L530 206L574 214L624 160L688 186L736 144" stroke="#6DE3FF" stroke-width="8" stroke-linecap="round" stroke-linejoin="round"/>
  <path d="M152 250H306" stroke="#FFB12A" stroke-width="12" stroke-linecap="round" stroke-opacity=".7"/>
  <path d="M152 220H348" stroke="#6DE3FF" stroke-width="12" stroke-linecap="round" stroke-opacity=".32"/>
  <path d="M152 190H260" stroke="#6DE3FF" stroke-width="12" stroke-linecap="round" stroke-opacity=".18"/>
  <circle cx="530" cy="206" r="12" fill="#FFB12A"/>
  <circle cx="624" cy="160" r="12" fill="#6DE3FF"/>
  <circle cx="736" cy="144" r="12" fill="#79EFBC"/>
  <rect x="92" y="374" width="716" height="48" rx="20" fill="#0F1B27" stroke="white" stroke-opacity=".07"/>
  <rect x="144" y="356" width="160" height="76" rx="18" fill="#09131C"/>
  <rect x="336" y="342" width="188" height="90" rx="18" fill="#09131C"/>
  <rect x="558" y="354" width="194" height="78" rx="18" fill="#09131C"/>
  <rect x="150" y="438" width="528" height="24" rx="12" fill="#0C1721"/>
  <path d="M104 518H790" stroke="#0A141C" stroke-width="34" stroke-linecap="round"/>
  <path d="M192 470V544" stroke="#152738" stroke-width="16" stroke-linecap="round"/>
  <path d="M640 470V544" stroke="#152738" stroke-width="16" stroke-linecap="round"/>
  <rect x="112" y="522" width="692" height="44" rx="18" fill="#0A131B"/>
  <path d="M470 522C518 470 586 444 662 444" stroke="#FFB12A" stroke-width="6" stroke-linecap="round" stroke-opacity=".7"/>
  <path d="M168 520C234 478 296 454 362 446" stroke="#6DE3FF" stroke-width="6" stroke-linecap="round" stroke-opacity=".7"/>
  <g fill="#FFB12A">
    <circle cx="136" cy="82" r="5"/>
    <circle cx="166" cy="82" r="5"/>
    <circle cx="196" cy="82" r="5"/>
  </g>
</svg>
