<svg width="900" height="640" viewBox="0 0 900 640" fill="none" xmlns="http://www.w3.org/2000/svg">
  <defs>
    <linearGradient id="bg" x1="82" y1="52" x2="796" y2="596" gradientUnits="userSpaceOnUse">
      <stop stop-color="#081119"/>
      <stop offset="1" stop-color="#1C3040"/>
    </linearGradient>
    <radialGradient id="glow" cx="0" cy="0" r="1" gradientUnits="userSpaceOnUse" gradientTransform="translate(610 124) rotate(119.293) scale(258.764 296.905)">
      <stop stop-color="#6DE3FF" stop-opacity=".3"/>
      <stop offset="1" stop-color="#6DE3FF" stop-opacity="0"/>
    </radialGradient>
  </defs>
  <rect width="900" height="640" rx="36" fill="url(#bg)"/>
  <rect x="34" y="34" width="832" height="572" rx="28" stroke="white" stroke-opacity=".08"/>
  <circle cx="620" cy="132" r="166" fill="url(#glow)"/>
  <path d="M86 446H816" stroke="#0D1822" stroke-width="90" stroke-linecap="round"/>
  <path d="M120 460H782" stroke="#162634" stroke-width="26" stroke-linecap="round"/>
  <g fill="#FFB12A" fill-opacity=".84">
    <circle cx="216" cy="460" r="16"/>
    <circle cx="338" cy="460" r="16"/>
    <circle cx="462" cy="460" r="16"/>
    <circle cx="586" cy="460" r="16"/>
    <circle cx="710" cy="460" r="16"/>
  </g>
  <g>
    <rect x="160" y="340" width="34" height="74" rx="14" fill="#DCE7ED"/>
    <rect x="274" y="320" width="34" height="94" rx="14" fill="#DCE7ED"/>
    <rect x="390" y="328" width="34" height="86" rx="14" fill="#DCE7ED"/>
    <rect x="506" y="314" width="34" height="100" rx="14" fill="#DCE7ED"/>
    <rect x="622" y="330" width="34" height="84" rx="14" fill="#DCE7ED"/>
  </g>
  <path d="M110 200H790" stroke="white" stroke-opacity=".08"/>
  <path d="M110 276H790" stroke="white" stroke-opacity=".08"/>
  <path d="M110 352H790" stroke="white" stroke-opacity=".08"/>
  <path d="M136 126H764" stroke="#6DE3FF" stroke-opacity=".16" stroke-width="2"/>
  <path d="M172 144C224 144 252 170 252 224V308" stroke="#6DE3FF" stroke-width="10" stroke-linecap="round"/>
  <path d="M270 144C322 144 348 168 348 214V302" stroke="#FFB12A" stroke-width="10" stroke-linecap="round"/>
  <path d="M442 156C486 156 514 180 514 222V308" stroke="#6DE3FF" stroke-width="10" stroke-linecap="round"/>
  <path d="M602 144C654 144 678 166 678 214V312" stroke="#FFB12A" stroke-width="10" stroke-linecap="round"/>
  <rect x="116" y="96" width="136" height="72" rx="18" fill="#102131" stroke="white" stroke-opacity=".08"/>
  <rect x="288" y="88" width="176" height="88" rx="22" fill="#102131" stroke="white" stroke-opacity=".08"/>
  <rect x="542" y="84" width="204" height="96" rx="24" fill="#102131" stroke="white" stroke-opacity=".08"/>
  <path d="M326 130H420" stroke="#6DE3FF" stroke-width="12" stroke-linecap="round"/>
  <path d="M326 156H390" stroke="#6DE3FF" stroke-width="10" stroke-linecap="round" stroke-opacity=".4"/>
  <path d="M576 126H688" stroke="#FFB12A" stroke-width="12" stroke-linecap="round"/>
  <path d="M576 154H650" stroke="#6DE3FF" stroke-width="10" stroke-linecap="round" stroke-opacity=".4"/>
  <path d="M136 576H786" stroke="white" stroke-opacity=".08"/>
</svg>
