<svg width="900" height="640" viewBox="0 0 900 640" fill="none" xmlns="http://www.w3.org/2000/svg">
  <defs>
    <linearGradient id="bg" x1="88" y1="52" x2="804" y2="590" gradientUnits="userSpaceOnUse">
      <stop stop-color="#08111A"/>
      <stop offset="1" stop-color="#1A2E3F"/>
    </linearGradient>
    <radialGradient id="glow" cx="0" cy="0" r="1" gradientUnits="userSpaceOnUse" gradientTransform="translate(662 122) rotate(121.823) scale(276.738 320.567)">
      <stop stop-color="#FFB12A" stop-opacity=".26"/>
      <stop offset="1" stop-color="#FFB12A" stop-opacity="0"/>
    </radialGradient>
  </defs>
  <rect width="900" height="640" rx="36" fill="url(#bg)"/>
  <rect x="34" y="34" width="832" height="572" rx="28" stroke="white" stroke-opacity=".08"/>
  <circle cx="660" cy="124" r="166" fill="url(#glow)"/>
  <rect x="102" y="96" width="696" height="414" rx="30" fill="#0D1822" stroke="#6DE3FF" stroke-opacity=".16"/>
  <rect x="144" y="138" width="284" height="136" rx="24" fill="#112433" stroke="white" stroke-opacity=".08"/>
  <rect x="454" y="138" width="304" height="194" rx="26" fill="#102131" stroke="white" stroke-opacity=".08"/>
  <rect x="144" y="298" width="614" height="170" rx="28" fill="#0F1D2A" stroke="white" stroke-opacity=".08"/>
  <path d="M486 298V166H726" stroke="#6DE3FF" stroke-width="8" stroke-linecap="round"/>
  <path d="M486 206H718" stroke="white" stroke-opacity=".08"/>
  <path d="M486 248H718" stroke="white" stroke-opacity=".08"/>
  <path d="M512 278L566 234L614 244L656 196L714 220" stroke="#FFB12A" stroke-width="8" stroke-linecap="round" stroke-linejoin="round"/>
  <circle cx="566" cy="234" r="10" fill="#6DE3FF"/>
  <circle cx="656" cy="196" r="10" fill="#79EFBC"/>
  <circle cx="714" cy="220" r="10" fill="#FFB12A"/>
  <rect x="176" y="170" width="96" height="68" rx="16" fill="#08121A" stroke="#79EFBC" stroke-opacity=".28"/>
  <rect x="292" y="170" width="96" height="68" rx="16" fill="#08121A" stroke="#FFB12A" stroke-opacity=".28"/>
  <path d="M194 202H252" stroke="#79EFBC" stroke-width="10" stroke-linecap="round"/>
  <path d="M310 202H356" stroke="#FFB12A" stroke-width="10" stroke-linecap="round"/>
  <path d="M194 226H236" stroke="#6DE3FF" stroke-width="8" stroke-linecap="round" stroke-opacity=".44"/>
  <path d="M310 226H344" stroke="#6DE3FF" stroke-width="8" stroke-linecap="round" stroke-opacity=".34"/>
  <g>
    <rect x="186" y="330" width="70" height="108" rx="16" fill="#122333"/>
    <rect x="276" y="350" width="70" height="88" rx="16" fill="#122333"/>
    <rect x="366" y="314" width="70" height="124" rx="16" fill="#122333"/>
    <rect x="456" y="334" width="70" height="104" rx="16" fill="#122333"/>
    <rect x="546" y="300" width="70" height="138" rx="16" fill="#122333"/>
    <rect x="636" y="324" width="70" height="114" rx="16" fill="#122333"/>
    <circle cx="220" cy="404" r="12" fill="#79EFBC"/>
    <circle cx="310" cy="404" r="12" fill="#6DE3FF"/>
    <circle cx="400" cy="404" r="12" fill="#FFB12A"/>
    <circle cx="490" cy="404" r="12" fill="#79EFBC"/>
    <circle cx="580" cy="404" r="12" fill="#FFB12A"/>
    <circle cx="670" cy="404" r="12" fill="#6DE3FF"/>
  </g>
  <path d="M146 522H790" stroke="#0A131B" stroke-width="50" stroke-linecap="round"/>
  <path d="M182 550H748" stroke="#13222F" stroke-width="14" stroke-linecap="round"/>
</svg>
