<svg xmlns="http://www.w3.org/2000/svg" viewBox="0 0 640 420" role="img" aria-labelledby="title desc">
  <title id="title">PID loop card</title>
  <desc id="desc">Stylized PID control loop card.</desc>
  <defs>
    <linearGradient id="bg" x1="0" x2="1" y1="0" y2="1">
      <stop offset="0" stop-color="#091018"/>
      <stop offset="1" stop-color="#1b213b"/>
    </linearGradient>
  </defs>
  <rect width="640" height="420" rx="34" fill="url(#bg)"/>
  <text x="56" y="88" fill="#d6dfff" font-family="Arial, Helvetica, sans-serif" font-size="58" font-weight="700" letter-spacing="6">PID</text>
  <text x="58" y="128" fill="#a8d4ff" font-family="Arial, Helvetica, sans-serif" font-size="22" letter-spacing="4">CLOSED LOOP REGULATION</text>
  <g transform="translate(74 166)">
    <rect width="492" height="190" rx="24" fill="#0d1422" stroke="#55d2ff" stroke-width="3"/>
    <path d="M42 146h400" stroke="#3d506d" stroke-width="2"/>
    <path d="M42 34v112" stroke="#3d506d" stroke-width="2"/>
    <path d="M42 78h400" stroke="#ffb750" stroke-width="4" stroke-dasharray="10 12"/>
    <path d="M42 146c28 0 42-84 88-84 34 0 36 48 60 48 22 0 36-30 54-30 26 0 30 44 50 44 20 0 36-18 58-18 28 0 38 22 90 22" fill="none" stroke="#74f4ff" stroke-width="8" stroke-linecap="round"/>
    <g fill="#dce7ff" font-family="Arial, Helvetica, sans-serif" font-size="18" letter-spacing="3">
      <text x="12" y="36">SETPOINT</text>
      <text x="352" y="174">STABLE OUTPUT</text>
    </g>
  </g>
  <g transform="translate(86 314)">
    <rect width="112" height="34" rx="17" fill="#1c2740" stroke="#8ab7ff"/>
    <text x="20" y="23" fill="#dce7ff" font-family="Arial, Helvetica, sans-serif" font-size="18" letter-spacing="2">P</text>
    <text x="48" y="23" fill="#dce7ff" font-family="Arial, Helvetica, sans-serif" font-size="18" letter-spacing="2">I</text>
    <text x="76" y="23" fill="#dce7ff" font-family="Arial, Helvetica, sans-serif" font-size="18" letter-spacing="2">D</text>
  </g>
</svg>
