<svg width="800" height="560" viewBox="0 0 800 560" fill="none" xmlns="http://www.w3.org/2000/svg">
  <defs>
    <linearGradient id="bg" x1="136" y1="34" x2="677" y2="501" gradientUnits="userSpaceOnUse">
      <stop stop-color="#07131F"/>
      <stop offset="1" stop-color="#15263A"/>
    </linearGradient>
    <radialGradient id="pulse" cx="0" cy="0" r="1" gradientUnits="userSpaceOnUse" gradientTransform="translate(566 136) rotate(109.002) scale(251.97 310.841)">
      <stop stop-color="#7AE7FF" stop-opacity=".28"/>
      <stop offset="1" stop-color="#7AE7FF" stop-opacity="0"/>
    </radialGradient>
  </defs>
  <rect width="800" height="560" rx="34" fill="url(#bg)"/>
  <rect x="38" y="38" width="724" height="484" rx="26" stroke="white" stroke-opacity=".08"/>
  <circle cx="586" cy="144" r="166" fill="url(#pulse)"/>
  <g opacity=".18" stroke="white">
    <path d="M94 98H706"/>
    <path d="M94 162H706"/>
    <path d="M94 226H706"/>
    <path d="M94 290H706"/>
    <path d="M94 354H706"/>
    <path d="M94 418H706"/>
    <path d="M154 78V482"/>
    <path d="M274 78V482"/>
    <path d="M394 78V482"/>
    <path d="M514 78V482"/>
    <path d="M634 78V482"/>
  </g>
  <circle cx="262" cy="274" r="150" stroke="#7AE7FF" stroke-opacity=".42" stroke-width="2"/>
  <circle cx="262" cy="274" r="108" stroke="#7AE7FF" stroke-opacity=".28" stroke-width="2"/>
  <circle cx="262" cy="274" r="66" stroke="#7AE7FF" stroke-opacity=".18" stroke-width="2"/>
  <path d="M262 124V424" stroke="#7AE7FF" stroke-opacity=".3" stroke-width="2"/>
  <path d="M112 274H412" stroke="#7AE7FF" stroke-opacity=".3" stroke-width="2"/>
  <path d="M262 274L352 204" stroke="#FFB048" stroke-width="8" stroke-linecap="round"/>
  <path d="M262 274L318 338" stroke="#FFB048" stroke-width="8" stroke-linecap="round"/>
  <circle cx="262" cy="274" r="18" fill="#FFB048"/>
  <circle cx="352" cy="204" r="16" fill="#7AE7FF"/>
  <circle cx="318" cy="338" r="16" fill="#8BE3D1"/>
  <path d="M552 208L612 156L670 208V290C670 344 630 389 612 401C594 389 552 344 552 290V208Z" fill="#0F2235" stroke="#FFFFFF" stroke-opacity=".14"/>
  <rect x="587" y="240" width="50" height="72" rx="14" fill="#10273C" stroke="#7AE7FF" stroke-opacity=".42"/>
  <path d="M598 240V222C598 207.641 609.641 196 624 196V196C638.359 196 650 207.641 650 222V240" stroke="#FFB048" stroke-width="10" stroke-linecap="round"/>
  <path d="M614 274H624H634" stroke="#7AE7FF" stroke-width="10" stroke-linecap="round"/>
  <g fill="#FFB048">
    <circle cx="118" cy="108" r="4"/>
    <circle cx="150" cy="108" r="4"/>
    <circle cx="182" cy="108" r="4"/>
    <circle cx="700" cy="452" r="4"/>
    <circle cx="668" cy="452" r="4"/>
    <circle cx="636" cy="452" r="4"/>
  </g>
</svg>
