<svg xmlns="http://www.w3.org/2000/svg" viewBox="0 0 640 420" role="img" aria-labelledby="title desc">
  <title id="title">WinCC supervision card</title>
  <desc id="desc">Stylized WinCC human machine interface card.</desc>
  <defs>
    <linearGradient id="bg" x1="0" x2="1" y1="0" y2="1">
      <stop offset="0" stop-color="#120d0a"/>
      <stop offset="1" stop-color="#4a1d11"/>
    </linearGradient>
  </defs>
  <rect width="640" height="420" rx="34" fill="url(#bg)"/>
  <g opacity=".12" stroke="#ffd6a5">
    <path d="M46 88h548"/>
    <path d="M46 156h548"/>
    <path d="M46 224h548"/>
    <path d="M46 292h548"/>
    <path d="M46 360h548"/>
  </g>
  <text x="56" y="88" fill="#ffcb78" font-family="Arial, Helvetica, sans-serif" font-size="58" font-weight="700" letter-spacing="5">WINCC</text>
  <text x="58" y="128" fill="#ffe2bf" font-family="Arial, Helvetica, sans-serif" font-size="22" letter-spacing="4">HMI + ALARMS + CADENCE</text>
  <g transform="translate(72 164)">
    <rect width="498" height="188" rx="24" fill="#1b1410" stroke="#ffb750" stroke-width="3"/>
    <rect x="20" y="20" width="138" height="34" rx="10" fill="#2c2018"/>
    <rect x="178" y="20" width="98" height="34" rx="10" fill="#2c2018"/>
    <rect x="296" y="20" width="182" height="34" rx="10" fill="#2c2018"/>
    <rect x="26" y="84" width="196" height="74" rx="18" fill="#0e2f2b" stroke="#38dfc3"/>
    <path d="M48 130h32l28-22 44 36 50-48" fill="none" stroke="#7df6df" stroke-width="8" stroke-linecap="round" stroke-linejoin="round"/>
    <rect x="244" y="84" width="230" height="20" rx="10" fill="#ffb750"/>
    <rect x="244" y="118" width="178" height="16" rx="8" fill="#ffdb9f" opacity=".9"/>
    <rect x="244" y="148" width="210" height="16" rx="8" fill="#ffdb9f" opacity=".78"/>
    <rect x="26" y="170" width="448" height="1" fill="#473325"/>
  </g>
</svg>
